<svg xmlns="http://www.w3.org/2000/svg" viewBox="0 0 512 512">

  <defs>
    <!-- Arrowhead -->
    <marker id="arrow" viewBox="0 0 12 12"
            refX="10" refY="6"
            markerWidth="7" markerHeight="7"
            orient="auto">
      <path d="M0,0 L12,6 L0,12 Z" fill="#000000"/>
    </marker>
  </defs>

  <!-- Circular iteration loop (true 120° symmetry) -->
  <g fill="none"
     stroke="#000000"
     stroke-width="8"
     stroke-linecap="round">

    <path d="M256 56
             A200 200 0 0 1 428 356"
          marker-end="url(#arrow)"/>

    <path d="M428 356
             A200 200 0 0 1 84 356"
          marker-end="url(#arrow)"/>

    <path d="M84 356
             A200 200 0 0 1 256 56"
          marker-end="url(#arrow)"/>
  </g>

  <!-- 3x3 Grid -->
  <!-- Layout math:
       Cell: 64
       Gap: 12
       Total grid: 64*3 + 12*2 = 216
       Start: (512 - 216) / 2 = 148
  -->

  <g stroke="#000000" stroke-width="4">

    <!-- Row 1 (darker) -->
    <rect x="148" y="148" width="64" height="64" rx="10" fill="#195f90"/>
    <rect x="224" y="148" width="64" height="64" rx="10" fill="#cc660b"/>
    <rect x="300" y="148" width="64" height="64" rx="10" fill="#238023"/>

    <!-- Row 2 -->
    <rect x="148" y="224" width="64" height="64" rx="10" fill="#1f77b4"/>
    <rect x="224" y="224" width="64" height="64" rx="10" fill="#ff7f0e"/>
    <rect x="300" y="224" width="64" height="64" rx="10" fill="#2ca02c"/>

    <!-- Row 3 -->
    <rect x="148" y="300" width="64" height="64" rx="10" fill="#1f77b4"/>
    <rect x="224" y="300" width="64" height="64" rx="10" fill="#ff7f0e"/>
    <rect x="300" y="300" width="64" height="64" rx="10" fill="#2ca02c"/>
  </g>

  <!-- Subtle Python Easter Egg (very restrained) -->
  <!-- Two tiny negative-space dots inside center orange cell -->
  <circle cx="251" cy="256" r="2" fill="#ffffff"/>
  <circle cx="261" cy="256" r="2" fill="#ffffff"/>

</svg>